<?xml version="1.0" encoding="UTF-8"?>
<svg xmlns="http://www.w3.org/2000/svg" xmlns:xlink="http://www.w3.org/1999/xlink" version="1.1" viewBox="0 0 320 167">
  <defs>
    <style>
      .cls-1 {
        opacity: .2;
      }

      .cls-1, .cls-2, .cls-3 {
        isolation: isolate;
      }

      .cls-4 {
        stroke-miterlimit: 10;
      }

      .cls-4, .cls-5, .cls-6, .cls-3 {
        fill: #fff;
      }

      .cls-4, .cls-6 {
        stroke: #000;
      }

      .cls-6 {
        stroke-miterlimit: 10;
        stroke-width: 1px;
      }

      .cls-7 {
        display: none;
      }

      .cls-3 {
        font-family: ArimaMadurai-Regular, 'Arima Madurai';
        font-size: 50px;
      }
    </style>
  </defs>
  <!-- Generator: Adobe Illustrator 28.7.1, SVG Export Plug-In . SVG Version: 1.2.0 Build 142)  -->
  <g>
    <g id="_レイヤー_1" data-name="レイヤー_1">
      <g>
        <g id="_レイヤー_1-2" data-name="_レイヤー_1" class="cls-7">
          <image class="cls-1" width="900" height="1200" transform="translate(-55 -228) scale(.5)" xlink:href="logo2-1.png"/>
        </g>
        <g id="_レイヤー_6" class="cls-7">
          <rect class="cls-5" x="-28" y="-43" width="402" height="281"/>
        </g>
        <g id="_レイヤー_2">
          <path class="cls-5" d="M87.6,76.9c0-3.4,19.3-2.1,27.2-1.2,1.1.1,1.6,1.4.8,2.2-1.8,2-4.6,4.2-4.6,7.1,0,6,13.1,11.2,22,9,8-2,10.9-6.6,11.4-12.6s-3-10.4-12.9-16.1c-10.9-6.3-18.2-11.1-18.3-21.8,0-11.6,8.7-21.4,19.5-21.5,11.1-.1,18.2,7.1,18.3,15,0,2.4,13-4,13-1s-8,7-18,7-1.5-.6-1-1c1.8-1.2,3.9-3.3,3-7-1-4-5.7-9-14-9-2.9,0-7,1-10,4s-3.7,7-3.6,10.9c0,8,6.1,11.8,15.3,17.1,10.2,5.7,12.7,7.7,16.3,12s8,16.7-5.6,24.6c-4.5,2.6-14.4,3.9-20.3,3.4-14.6-1.2-38.4-13-38.5-21.1h0Z"/>
          <path class="cls-5" d="M106.1,49.2c1.6.4,2.4-1.8.9-2.6-6.9-3.3-19.2-9.3-24.5-13.2-7-5.1-17.7-15.7-20.6-26.1-.2-.9-1.3-1.3-2.1-.8-4.6,3.3-17.8,13.7-17.8,24.4s12.2,14.1,20.3,14.5c1,0,1.6,1.1,1.1,2-2.5,4.8-8.1,17.5-.9,23.1,6.8,5.2,16.9.4,21.5-2.4,1-.6,2.1-1.2,2-.1-.2,2.9.5,10.1,3,12,0,0,4,3,4,3,1.3,1,19.2-5.8,18-7-.3-.3-8-1-17-2-3.7-.4-6.1-6.9-5.7-9.8.1-.9-.6-1.6-1.5-1.5-3.5.4-8.2,4.2-11.3,4.8-2.5.5-6.5,1.5-9.5-1.5s0-12,2-19c2.1-7.3-5-4-14-6-5-1.1-11-7-7-17,2.2-5.4,7-9,9-11,2.5-2.6,3,0,5,4,1.4,2.9,5.2,8,12,14,9.6,8.5,14,12,29,17s2.9.9,4.1,1.2h0Z"/>
          <g class="cls-2">
            <text class="cls-3" transform="translate(150.5 97.6) rotate(9.5)"><tspan x="0" y="0">u</tspan></text>
          </g>
          <g class="cls-2">
            <text class="cls-3" transform="translate(175.8 102.2) rotate(4.6)"><tspan x="0" y="0">m</tspan></text>
          </g>
          <g class="cls-2">
            <text class="cls-3" transform="translate(215.7 104.7)"><tspan x="0" y="0">i</tspan></text>
          </g>
          <g class="cls-2">
            <text class="cls-3" transform="translate(226.3 103.3) rotate(-5)"><tspan x="0" y="0">k</tspan></text>
          </g>
          <g class="cls-2">
            <text class="cls-3" transform="translate(249.4 100) rotate(-9.8)"><tspan x="0" y="0">a</tspan></text>
          </g>
          <line class="cls-5" x1="168.8" y1="26.3" x2="166.4" y2="26.5"/>
          <line class="cls-5" x1="166.8" y1="24.3" x2="168.8" y2="24.8"/>
          <g class="cls-7">
            <path class="cls-5" d="M189.6-120.1l3.1-1.1c.2,0,.3-.3.3-.6v-71.6c0-.6-.5-.8-.8-.4l-.3.5c-1.9,3.3-2.9,7.4-2.9,11.6v61c0,.4.3.7.6.6h0Z"/>
            <path class="cls-5" d="M190.3-133.3l1.7,2.3c.2,0,1.6-1.1,1.6-1.2l15.9-27.8c.1-.2-.3-.6-.6-.5h-.4c-2.4.4-4.2,1.4-5.1,3.1l-13.6,23.6c0,.2,0,.4.3.5h0Z"/>
            <path class="cls-5" d="M189.1-122.8l3.9.9-11.2,50.8c-.2,1.1-1.3,1.8-2.4,1.5h0c-1.1-.2-1.8-1.3-1.5-2.4l11.2-50.8h0Z"/>
            <path class="cls-4" d="M168.5-186.5h0c11,0,20,9,20,20h0c-11,0-20-9-20-20h0Z"/>
            <path class="cls-6" d="M220-138.8h0c-5,9.8-17.1,13.7-26.9,8.7h0c5-9.8,17.1-13.7,26.9-8.7h0Z"/>
          </g>
          <g>
            <path class="cls-5" d="M163.7,36.1h1.7c.1,0,.2-.2.2-.3L176.2.4c0-.3-.1-.5-.3-.3l-.2.2c-1.4,1.3-2.5,3.2-3.1,5.3l-8.9,30.1c0,.2,0,.4.2.4h0Z"/>
            <path class="cls-5" d="M166,29.7l.5,1.4c0,0,.9-.3,1-.4l11.9-11.4c.1,0,0-.3-.2-.4h-.2c-1.2-.2-2.3,0-3,.7l-10.2,9.7c0,0,0,.2.1.3h0Z"/>
            <path class="cls-5" d="M163.9,34.7l1.8,1-13,23.4c-.3.5-.9.7-1.4.4h0c-.5-.3-.7-.9-.4-1.4l13-23.4h0Z"/>
            <path class="cls-5" d="M163.1.3h0c5.4,1.6,8.6,7.4,6.9,12.8h0c-5.4-1.6-8.6-7.4-6.9-12.8h0Z"/>
            <path class="cls-5" d="M181.5,31.3h0c-3.9,4.1-10.5,4.3-14.6.3h0c3.9-4.1,10.5-4.3,14.6-.3h0Z"/>
          </g>
        </g>
        <g id="_レイヤー_5">
          <rect class="cls-5" x="147" y="-18" width="4" height="237" transform="translate(25.3 230.9) rotate(-80.5)"/>
          <path class="cls-5" d="M41.8,82.9"/>
          <rect class="cls-5" x="86" y="111" width="213" height="4" transform="translate(-16.4 34.2) rotate(-9.8)"/>
          <rect class="cls-5" x="72" y="64" width="4" height="89" transform="translate(-46.8 57) rotate(-32.6)"/>
          <rect class="cls-5" x="159" y="14" width="4" height="202" transform="translate(43.1 273.9) rotate(-89)"/>
          <rect class="cls-5" x="128.5" y="23.5" width="5" height="210" transform="translate(-29.5 217.5) rotate(-73.5)"/>
          <rect class="cls-5" x="161.2" y="122.8" width="109.7" height="4" transform="translate(-32.4 102.1) rotate(-24.8)"/>
          <rect class="cls-5" x="154" y="53" width="5" height="183" transform="translate(-7.8 280) rotate(-82.2)"/>
          <rect class="cls-5" x="125.5" y="130.7" width="181.1" height="4" transform="translate(-29.5 69.4) rotate(-17.1)"/>
          <rect class="cls-5" x="106" y="156" width="120" height="5"/>
          <rect class="cls-5" x="212" y="133" width="67" height="4" transform="translate(-34 153.7) rotate(-32.6)"/>
          <rect class="cls-5" x="216" y="154" width="54" height="4" transform="translate(-35.1 78.3) rotate(-17.1)"/>
          <rect class="cls-5" x="114.5" y="123.5" width="3" height="48" transform="translate(-65.3 196) rotate(-66.8)"/>
          <rect class="cls-5" x="195" y="137" width="44" height="2"/>
          <rect class="cls-5" x="267.5" y="92.5" width="2" height="35" transform="translate(39 287.5) rotate(-60)"/>
          <rect class="cls-5" x="229.9" y="137.6" width="58.4" height="2.4" transform="translate(-6.1 265.5) rotate(-53.7)"/>
          <rect class="cls-5" x="96.5" y="84.5" width="2" height="35" transform="translate(-43.6 98.8) rotate(-45)"/>
          <rect class="cls-5" x="80" y="143" width="34" height="2" transform="translate(-31.7 27.5) rotate(-13.9)"/>
          <rect class="cls-5" x="66" y="120" width="2" height="16" transform="translate(-77.4 124.6) rotate(-61)"/>
          <rect class="cls-5" x="62.1" y="84.8" width="1.9" height="47.2" transform="translate(-29.1 23.3) rotate(-17.1)"/>
          <rect class="cls-5" x="293.1" y="86.2" width="2.7" height="26.9" transform="translate(51.6 293.6) rotate(-57.3)"/>
          <rect class="cls-5" x="239" y="135" width="39" height="3" transform="translate(-14.5 31.9) rotate(-6.9)"/>
          <rect class="cls-5" x="254.5" y="108.8" width="20" height="3.2" transform="translate(62.6 313.8) rotate(-67.9)"/>
          <rect class="cls-5" x="148" y="125" width="16" height="2" transform="translate(-37.9 177.2) rotate(-53.7)"/>
          <g>
            <path class="cls-5" d="M287.1,127.3l2.3.6c.1,0,.3,0,.5-.2l30-39.5c.2-.3,0-.7-.3-.5l-.4.2c-2.5,1.1-4.8,2.9-6.6,5.2l-25.5,33.7c-.2.2-.1.5,0,.6h0Z"/>
            <path class="cls-5" d="M293,120.3v2c.1.1,1.5,0,1.6,0l21.1-9c.2,0,0-.4-.1-.5h-.2c-1.5-.9-3.1-1-4.3-.5l-18,7.7c-.1,0-.1.2,0,.4h0Z"/>
            <path class="cls-5" d="M259.9,151.1h0c.5.6,1.5.6,2,.1l27.9-23.6-2-2-27.9,23.6c-.6.5-.6,1.4,0,1.9h0Z"/>
            <path class="cls-5" d="M305.9,101.3h0c-6.6-4.3-8.1-12.8-3.5-18.9h0c6.6,4.3,8.1,12.8,3.5,18.9h0Z"/>
            <path class="cls-5" d="M293.4,123.1h0c7.1-3.4,15.9-.8,19.6,5.8h0c-7.1,3.4-15.9.8-19.6-5.8h0Z"/>
          </g>
          <g>
            <path class="cls-5" d="M34.3,82.7l-2.3.8c-.1,0-.3,0-.5-.2L-.3,41.6c-.3-.3,0-.7.3-.6l.4.2c2.6,1.1,5,3,6.8,5.4l27.1,35.5c.2.2.2.5,0,.6Z"/>
            <path class="cls-5" d="M28,75.3v2.1c0,.1-1.4,0-1.5,0l-21.6-9.1c-.2,0,0-.5.1-.6h.2c1.5-1,3.1-1.2,4.3-.6l18.4,7.7c.1,0,.1.3,0,.4Z"/>
            <path class="cls-5" d="M62.6,107.5h0c-.5.6-1.4.7-2.1.2l-29.1-24.5,1.9-2.2,29.1,24.5c.6.5.7,1.4.2,2.1h0Z"/>
            <path class="cls-5" d="M14.3,55.2h0c-4.9-6.4-3.7-15.6,2.7-20.5h0c4.9,6.4,3.7,15.6-2.7,20.5Z"/>
            <path class="cls-5" d="M27.8,78.4h0c-3.5,7.3-12.2,10.4-19.5,6.9h0c3.5-7.3,12.2-10.4,19.5-6.9Z"/>
          </g>
        </g>
      </g>
    </g>
  </g>
</svg>