<?xml version="1.0" encoding="UTF-8"?>
<svg id="_レイヤー_1" data-name="レイヤー_1" xmlns="http://www.w3.org/2000/svg" xmlns:xlink="http://www.w3.org/1999/xlink" viewBox="0 0 271.06 71.34">
  <defs>
    <style>
      .cls-1 {
        fill: url(#_名称未設定グラデーション_67-2);
      }

      .cls-2 {
        fill: #008842;
      }

      .cls-3 {
        fill: url(#_名称未設定グラデーション_67);
      }
    </style>
    <linearGradient id="_名称未設定グラデーション_67" data-name="名称未設定グラデーション 67" x1="170.39" y1="16.07" x2="170.39" y2="62.54" gradientUnits="userSpaceOnUse">
      <stop offset="0" stop-color="#8fc31f"/>
      <stop offset="1" stop-color="#008842"/>
    </linearGradient>
    <linearGradient id="_名称未設定グラデーション_67-2" data-name="名称未設定グラデーション 67" x1="0" y1="38.72" x2="63.44" y2="38.72" xlink:href="#_名称未設定グラデーション_67"/>
  </defs>
  <path class="cls-3" d="M77.4,37.1c-3.24,4.05-4.53,4.53-5.48,4.53-1.24,0-2.19-.95-2.19-2.1,0-.57.24-1.14.81-1.67,4.58-4.2,8.87-10.35,11.16-16.84.38-1.05,1.19-1.48,2.05-1.48,1.29,0,2.67,1,2.67,2.34,0,1.53-4.29,8.54-4.44,8.78l-.57,27.9c-.05,1.38-1.19,2.1-2.38,2.1-1.1,0-2.19-.67-2.19-2v-.1l.57-21.46ZM88.13,58.94c-1.53,0-2.24-.95-2.24-1.96s.81-2.15,2.24-2.15l9.21.05v-10.54l-5.39.05c-.81,1.38-4.48,7.35-7.25,7.35-1.34,0-2.38-.95-2.38-2.1,0-.52.24-1.14.86-1.67,4.44-3.86,7.35-9.2,9.06-14.88l-6.06.05h-.05c-1.48,0-2.19-1-2.19-2.05s.76-2.19,2.24-2.19l7.06.05c.48-2.38.81-4.77.95-7.01.1-1.43,1.19-2.05,2.29-2.05,1.29,0,2.58.81,2.58,2.15,0,.05-.29,3.05-1.19,6.92l12.83-.05c1.48,0,2.24,1.05,2.24,2.1s-.76,2.15-2.24,2.15l-13.93-.05c-.76,2.53-1.67,4.96-2.72,7.25h14.5c1.53,0,2.29,1,2.29,2.05s-.76,2-2.29,2l-6.68-.05v10.54l9.3-.05c1.43,0,2.15,1.05,2.15,2.1s-.72,2-2.15,2h-23.04ZM162.54,43.25l-2.72-.1c1.29,1.19,2.77,2.29,4.44,3.2.67.33.95.95.95,1.53,0,1.05-.81,2.1-1.96,2.1-.81,0-1.57-.52-3.29-1.91-3.15,2.91-4.05,2.91-4.29,2.91-.95,0-1.72-.81-1.72-1.57,0-.38.19-.81.62-1.1.95-.67,2.05-1.53,3-2.53-.81-.86-1.57-1.76-2.24-2.67h-7.49c-.67,1.05-1.43,2.05-2.24,3,2.48,1.67,2.67,2.53,2.67,3,0,1-.86,1.86-1.76,1.86-.43,0-.91-.19-1.29-.62-.67-.72-1.43-1.34-2.05-1.81-1.91,1.67-2.62,2.15-3.34,2.15-.52,0-1-.24-1.34-.62,0,1.62.05,3.96.05,5.2v.1c0,2.91-1.91,4.58-4.82,4.58-2.15,0-3.82-.62-3.82-2.24,0-.86.62-1.72,1.67-1.72.14,0,.29,0,.43.05.48.1.91.14,1.34.14.86,0,1.53-.33,1.57-1.57.05-1.29.05-3.43.05-5.87h-4.1c-.67,6.34-2.96,12.07-5.44,12.07-1.1,0-2.1-.91-2.1-1.91,0-.38.1-.72.38-1.05,3.24-4.1,3.82-10.59,3.82-16.79,0-2.81-.1-5.58-.14-8.06v-.14c0-3.15,2.1-3.77,5.34-3.77.76,0,1.43,0,2.1.05,2.29.14,3.67,1.67,3.67,3.91v14.55c.1-.14.29-.24.43-.33,1.86-1.19,3.39-2.58,4.67-4.1l-2.81.1h-.05c-1.05,0-1.57-.81-1.57-1.62,0-.76.52-1.57,1.57-1.57h.05l5.01.05c.52-.86.95-1.81,1.34-2.72l-4.96.05h-.05c-1.1,0-1.67-.76-1.67-1.53,0-.81.57-1.57,1.72-1.57h1.67l-.05-.1c-.72-1.38-1.34-2-1.72-2.48-.19-.24-.29-.52-.29-.76,0-.86,1.05-1.53,1.96-1.53,1.53,0,3.29,2.81,3.29,3.77,0,.38-.14.76-.43,1.1h1.53c.38-1.48.67-3,.81-4.48.1-1.1.95-1.53,1.86-1.53.95,0,2,.57,2,1.57,0,.38-.19,1.24-1.05,4.44h2.19c.52-1.1.95-2.1,1.67-4.01.24-.62.81-.91,1.48-.91,1.05,0,2.19.72,2.19,1.67,0,.38-.91,2.1-1.57,3.24h2.48c1.14,0,1.67.76,1.67,1.53s-.57,1.57-1.62,1.57h-.05l-4.77-.05c.48.95,1.05,1.86,1.67,2.72l5.44-.05h.05c1.1,0,1.67.81,1.67,1.57,0,.81-.57,1.62-1.67,1.62h-.05ZM152.67,25.84v.19c0,1.38-1.14,2.1-2.24,2.1s-2.05-.62-2.05-1.91v-.38h-7.44v1.19c0,1.38-1.14,2.1-2.29,2.1-1.05,0-2.1-.62-2.1-1.91v-1.38h-9.59c-1.48,0-2.24-1-2.24-1.96,0-1,.76-1.96,2.24-1.96h9.59v-1.81c0-1.29,1.1-1.96,2.19-1.96s2.19.67,2.19,1.96v1.81h7.44v-1.81c0-1.29,1.1-1.96,2.15-1.96s2.15.67,2.15,1.96v1.81h9.82c1.43,0,2.15.95,2.15,1.91,0,1-.76,2-2.15,2h-9.82ZM134.97,40.91h-3.82c0,1.43,0,2.91-.05,4.34h3.86v-4.34ZM134.92,37.43c0-1.34,0-2.53-.05-3.53,0-.72-.29-1.19-1.19-1.24h-1.43c-.72.05-1.1.52-1.1,1.24v3.53h3.77ZM141.12,58.23c-1.1,0-1.81-1-1.81-1.91,0-.62.33-1.24,1.05-1.48,2.67-.86,3.67-1.48,5.72-2.86.29-.19.57-.29.86-.29.81,0,1.43.76,1.43,1.62,0,.52-.19,1.05-.76,1.48-3.86,2.96-5.77,3.43-6.49,3.43ZM149.38,45.63c0-1.14.86-1.72,1.76-1.72,1.96,0,1.96,1.53,1.96,3.05,0,2-.05,4.82-.05,5.48,0,1,.1,2.81.1,4.05v.1c0,2-1.34,3.96-4.72,3.96-3.05,0-3.53-.91-3.53-2.05,0-.91.57-1.81,1.48-1.81.1,0,.19,0,.33.05.38.1.86.14,1.29.14.76,0,1.38-.24,1.43-1.14v-2.34c0-2.58,0-6.25-.05-7.73v-.05ZM153.38,40.1c-.57-.95-1.05-1.91-1.38-2.77h-1.24c-.38.95-.76,1.86-1.19,2.77h3.82ZM160.63,58.23c-1.76-1.43-3.63-2.38-5.63-3-.86-.24-1.19-.86-1.19-1.43,0-.81.72-1.67,1.76-1.67,1.14,0,5.25,1.48,7.11,2.72.76.52,1.05,1.19,1.05,1.86,0,1.05-.76,2.05-1.81,2.05-.38,0-.86-.14-1.29-.52ZM215.15,54.55c1.43,0,2.1,1.1,2.1,2.15s-.67,2.19-2.05,2.19c-5.63.14-11.26.19-16.84.19-4.53,0-9.01-.05-13.31-.14-4.15-.1-6.15-2.24-6.3-5.77-.14-3.58-.19-7.63-.19-11.83,0-5.1.1-10.3.19-14.98.05-3.05,2.34-5.15,5.91-5.2,4.15-.1,9.2-.1,14.31-.1s10.35,0,14.79.1c1.43,0,2.1,1.05,2.1,2.1s-.67,2.05-2.1,2.05c-6.15-.05-13.59-.1-19.75-.1-2.77,0-5.29,0-7.35.05-2.72.05-3.43.81-3.48,3.24-.1,3.86-.14,7.82-.14,11.69s.05,7.68.14,11.26c.1,2.72,1.05,3.15,3.96,3.24,2.86.05,6.06.1,9.44.1,5.82,0,12.21-.1,18.51-.24h.05ZM211.77,41.39l-9.63-.14c2.24,3.63,6.06,6.15,9.78,7.44,1.19.43,1.72,1.34,1.72,2.24,0,1.14-.86,2.24-2.29,2.24-2.67,0-9.11-4.39-11.97-9.54-4.2,8.68-12.59,9.78-12.73,9.78-1.29,0-2.05-1.1-2.05-2.15,0-.86.48-1.72,1.72-2.05,5.63-1.43,8.39-4.63,9.68-8.01l-9.01.19h-.05c-1.29,0-1.91-.91-1.91-1.86s.67-1.96,1.96-1.96h9.87l.14-1.43c.05-.95.05-2.1.05-3.24h-4.72c-2.34,3.48-3.24,3.72-4.05,3.72-1.14,0-2.24-.81-2.24-1.81,0-.38.14-.76.52-1.14,2.15-2.24,3.24-4.05,4.44-7.01.33-.76.95-1.05,1.67-1.05,1.14,0,2.34.81,2.34,1.91,0,.1,0,.29-.57,1.62h14.36c1.24,0,1.86.95,1.86,1.86,0,.95-.62,1.91-1.86,1.91h-7.3c0,.57-.05,3.53-.24,4.67h10.54c1.29,0,1.91.95,1.91,1.91s-.62,1.91-1.86,1.91h-.05ZM232.57,60.94c-1.19,0-2.34-.72-2.34-2.1,0-8.68.05-24.37.24-34.44.1-4.53,2.62-4.53,6.92-4.53.91,0,1.81,0,2.62.05,2.72.1,4.1,1.57,4.1,3.62,0,.91-.29,2.34-2.81,7.77-.24.48-.33.91-.33,1.34,0,.62.24,1.24.76,1.91,1.67,2.1,2.58,4.15,2.58,7.39,0,4.15-2.62,7.25-6.01,7.25-.81,0-3.29-.19-3.29-2.29,0-1.05.72-2.05,1.72-2.05.19,0,.33.05.52.1.24.05.43.1.67.1,1.05,0,2.24-.91,2.24-3.43,0-2.19-.67-3.91-1.86-5.58-.91-1.29-1.29-2.34-1.29-3.39,0-.86.24-1.72.67-2.72,1.05-2.29,1.91-5.15,1.91-5.48,0-.57-.24-.95-1.96-.95s-2.72.05-2.72,1.67c-.05,4.44-.1,10.06-.1,15.98v17.69c0,1.38-1.14,2.1-2.24,2.1ZM239.72,58.46c0-.91.57-1.86,1.81-2.29,6.39-2.29,8.25-6.06,9.01-11.07.19-1.29,1.14-1.86,2.1-1.86,1.19,0,2.43.86,2.43,2.19,0,.1,0,.24-.05.38-2.24,12.88-12.35,14.83-12.97,14.83-1.48,0-2.34-1.05-2.34-2.19ZM265.48,32.14v-1.96c0-1.72-.67-2.05-2.19-2.1-1.91-.05-4.2-.1-6.39-.1s-4.44.05-6.15.1c-1.76.05-2.29.52-2.29,1.96v2.05c0,1.34-1.1,2-2.19,2s-2.19-.67-2.19-2v-2.38c0-2.19.1-5.2,4.86-5.34,1.67-.05,3.48-.1,5.34-.1l-.05-3.39v-.05c0-1.48,1.19-2.24,2.43-2.24s2.43.76,2.43,2.24v.05l-.05,3.39c2.1,0,4.2,0,6.06.1,3.1.14,4.91,1.53,4.91,4.39v3.34c-.1,1.34-1.24,2.05-2.38,2.05s-2.15-.67-2.15-1.96v-.05ZM266.57,51.5c0-1.34,1-1.91,2.05-1.91.76,0,2.43.33,2.43,2.29,0,6.77-2.58,8.06-7.73,8.06s-6.25-2.05-6.25-5.48c0-1.62.05-8.92.14-12.07l-10.73.1c-1.29,0-1.96-1-1.96-2s.67-1.96,1.96-1.96h21.65c1.24,0,1.86,1,1.86,2s-.62,1.96-1.81,1.96h-.05l-6.49-.1c-.05,2.86-.19,8.44-.19,10.78,0,1.29.19,2.48,1.91,2.48,2.67,0,3.2-.72,3.2-3.63v-.52ZM251.26,35.24c-1.34,0-2-.95-2-1.91s.67-1.91,2-1.91h11.49c1.24,0,1.86.95,1.86,1.91s-.62,1.91-1.86,1.91h-11.49Z"/>
  <path class="cls-1" d="M9.6,50.15c-2.25-11.81,3.21-29.52,24.43-35.25,16.24-4.78,19.55-9.88,22.55-8.6,3,1.29,10.12,24.34,5.16,39.94-8.51,26.76-30.41,22.34-42.05,19.89-1.9-.4-1.06-2.06-.38-2.7,15.79-14.7,23.58-27.77,25.04-33.63,2.61-10.43-8.45,14.3-40.54,41.3-2.57,1.29-5.28-3.22-2.87-5.2,6.95-5.71,10.54-5.91,8.66-15.75Z"/>
  <path class="cls-2" d="M98.54,5.86h-1.41c-.43,0-.66-.32-.66-.64s.23-.64.66-.64h1.39V1.36c0-.44.35-.66.7-.66s.72.21.72.66v3.21h1.21c.4,0,.6.32.6.64s-.2.64-.6.64h-1.22v3.44c.32-.15.64-.31.93-.47.14-.08.26-.11.38-.11.37,0,.66.28.66.6,0,.21-.14.44-.44.61-.54.29-3.84,1.96-4.47,1.96-.41,0-.67-.35-.67-.7,0-.28.15-.55.49-.66.58-.2,1.16-.4,1.73-.63v-4.04ZM105.13,5.74l-1.39.7c0,1.85,0,3.72.02,4.53.03.9.9.92,2.23.92,1.87,0,2.75-.06,2.75-1.58,0-.46.32-.67.67-.67.14,0,.78.05.78.78,0,2.77-2.14,2.77-4.12,2.77-1.71,0-3.67-.05-3.7-1.96-.02-.96-.02-2.49-.02-4.08l-.93.47c-.11.05-.2.08-.29.08-.35,0-.61-.34-.61-.67,0-.21.11-.44.37-.57l1.47-.73c0-1.33.03-2.59.03-3.41,0-.44.35-.67.69-.67s.67.21.67.64h0c-.02.64-.02,1.64-.02,2.74l1.39-.69V.95c0-.41.34-.63.69-.63s.67.21.67.63v2.69l.75-.38c.38-.2.72-.28,1.01-.28,1.1,0,1.15,1.09,1.15,1.91,0,3.5-.34,4.71-1.9,4.71-.69,0-.9-.24-.9-.73,0-.34.17-.67.49-.67.05,0,.09.02.15.03s.12.03.18.03c.24,0,.63-.21.63-2.8,0-.64-.01-1.04-.26-1.04-.06,0-.11.02-.17.05-.23.12-.64.34-1.13.58v5.02c0,.38-.34.58-.69.58s-.67-.2-.67-.58v-4.33ZM115.13,5.12h-.98c-.43,0-.64-.32-.64-.64s.21-.64.64-.64h.98V1.3c0-.44.35-.66.7-.66s.72.21.72.66v2.54h.89c.4,0,.6.32.6.64s-.2.64-.6.64h-.89l-.02,3.41c.29-.12.57-.26.83-.4.12-.06.23-.09.34-.09.34,0,.58.29.58.6,0,.23-.12.47-.43.63-1.44.77-3.44,1.61-3.87,1.61s-.69-.35-.69-.7c0-.28.17-.55.5-.64.47-.14.92-.28,1.35-.43l-.02-3.98ZM117.93,11.57c-.4,0-.64-.37-.64-.73,0-.26.14-.52.44-.6,1.55-.38,2.85-.84,4.02-1.41.09-.05.18-.06.26-.06.31,0,.52.31.52.61,0,.21-.09.43-.32.55-1.85,1.04-4.19,1.64-4.28,1.64ZM123.69,3.95c.05,1.53.14,3.14.35,4.51.43-.81.75-1.73,1.06-2.83.08-.28.31-.4.55-.4.38,0,.83.29.83.7,0,.11-.67,2.39-2.07,4.27.34,1.25.77,1.68.93,1.68.2,0,.37-.34.47-1.22.05-.37.34-.55.63-.55.37,0,.75.26.75.76s-.43,2.48-1.91,2.48c-.66,0-1.3-.32-1.9-1.96-1.32,1.3-3.2,2.16-3.58,2.16-.41,0-.69-.32-.69-.67,0-.28.17-.55.55-.69,1.36-.5,2.45-1.19,3.32-2.23-.38-1.77-.57-3.95-.66-6.01h-4.08c-.47,0-.7-.34-.7-.66s.23-.66.7-.66l3.76.02h.28c-.02-.63-.03-1.24-.05-1.82h0c0-.46.37-.69.73-.69s.72.21.72.69v.02c-.02.55-.02,1.16-.02,1.81l2.39-.02c.47,0,.72.32.72.64s-.24.67-.72.67h-2.37ZM120.04,8.81c-.77,0-1.65-.05-1.7-.96-.02-.26-.02-.58-.02-.93,0-.46,0-.93.02-1.28.03-.87.76-.93,1.76-.93.92,0,1.64.11,1.67.92.01.49.03,1.02.03,1.53,0,1.16,0,1.67-1.76,1.67ZM120.66,6.82c0-.28,0-.55-.02-.81,0-.2-.11-.26-.58-.26q-.63,0-.63,1.01c0,.24.02.49.02.67.02.14.06.26.58.26q.63,0,.63-.87ZM125.33,2.19c-.32-.41-.7-.61-1.07-.8-.15-.09-.23-.21-.23-.34,0-.31.34-.63.66-.63.38,0,1.64.64,1.64,1.25,0,.37-.32.69-.63.69-.14,0-.26-.05-.37-.18ZM132.4,12.22c-.29-.93-.4-1.93-.4-2.92,0-2.69.78-5.32.86-6.38.05-.52.38-.73.73-.73.38,0,.76.26.76.67,0,.03,0,.08-.01.12-.21,1.12-.99,3.95-.99,5.46,0,.57.11.63.15.63.03,0,.08-.03.11-.11.47-.9.58-1.09.9-1.09s.63.31.63.64c0,.09-.02.18-.08.28-.73,1.27-1.15,2.42-1.15,2.88,0,.14.02.28.02.41,0,.75-.6.8-.77.8-.31,0-.63-.2-.77-.66ZM140.9,12.13c-2.65,0-4.67-1.58-4.67-2.33,0-.4.37-.72.8-.72.23,0,.47.09.69.34.64.72,1.73,1.02,2.97,1.02.43,0,.86-.03,1.3-.09.06-.02.12-.02.18-.02.52,0,.76.35.76.73,0,.8-.67,1.06-2.03,1.06ZM139.18,5.42c-.67,0-1.39-.06-2.06-.23-.46-.11-.64-.4-.64-.69,0-.37.29-.72.7-.72.05,0,.09,0,.15.02.5.11,1.01.15,1.48.15.66,0,1.28-.08,1.88-.15.05,0,.09-.02.14-.02.47,0,.73.35.73.72,0,.61-.43.92-2.39.92ZM150.87,12.88c0,.41-.38.63-.75.63s-.75-.2-.75-.63v-.02l.06-5.69c-.43.78-.92,1.53-1.42,2.14-.18.23-.41.32-.63.32-.38,0-.73-.31-.73-.67,0-.17.08-.35.24-.52.83-.84,1.93-2.42,2.54-3.92v-.06l-1.61.03h-.02c-.43,0-.64-.32-.64-.66s.21-.67.66-.67h1.59l-.05-2.49v-.02c0-.43.38-.66.76-.66s.73.21.73.66v.02s-.03,1.15-.05,2.49h1.09c.44,0,.67.34.67.67s-.23.66-.66.66h-.02l-1.1-.03c0,.4-.02.81-.02,1.16.4,0,1.79.89,1.79,1.47,0,.38-.34.72-.69.72-.15,0-.32-.08-.44-.24-.18-.24-.43-.54-.66-.77.02,2.37.08,6.06.08,6.06v.02ZM154.38,6.98v.61c0,.98-.01,2.59-.01,3.6.57-.23,1.06-.46,1.47-.69.11-.06.21-.09.32-.09.34,0,.61.29.61.61,0,.21-.12.44-.41.61-1.64.93-4.01,1.76-4.44,1.76s-.69-.35-.69-.7c0-.28.17-.57.54-.66.4-.09.8-.2,1.18-.32,0-7.63,0-8.6.03-9.81.01-.7.5-1.33,1.55-1.38.57-.03,1.13-.03,1.68-.03s1.12,0,1.64.03c.9.05,1.48.64,1.51,1.36.03.81.06,1.74.06,2.63,0,.34,0,.67-.02.98-.03.8-.75,1.44-1.65,1.48-.29.02-.57.03-.86.03.11.57.26,1.1.46,1.59.6-.35,1.16-.78,1.73-1.27.12-.11.26-.15.4-.15.37,0,.73.37.73.75s-.35.77-2.36,1.68c.57.93,1.38,1.7,2.54,2.29.32.17.46.43.46.67,0,.4-.32.77-.81.77-1.04,0-3.75-2.34-4.48-6.33-.38,0-.78-.02-1.18-.03ZM158.01,3.11c-.02-.28-.03-.54-.05-.78-.06-.63-.35-.64-1.84-.64-1.38,0-1.74,0-1.74.66,0,.26-.01.5-.01.76h3.64ZM154.38,4.3v1.45c.44.02.99.03,1.51.03s1.06-.02,1.44-.03c.67-.03.69-.5.69-1.45h-3.64ZM170.43,3.81c-.69-1.24-.75-1.65-.75-1.73,0-.43.34-.66.7-.66s.75.23.89.73c.09.35.31.81.55,1.3.23-.08.46-.15.69-.24.17-.06.31-.09.44-.09.46,0,.72.35.72.7,0,.58-.41.7-1.16.92,1.33,2.37,2.1,3.78,2.1,4.74,0,.61-.31.86-.67.86-.26,0-.55-.11-.8-.32-.57-.47-2.45-.83-3.53-.83-1.22,0-1.84.6-1.84,1.02,0,.67,1.32,1.13,2.68,1.13.24,0,.49-.01.73-.03h.14c.6,0,.89.35.89.73,0,.43-.35.87-.99.87-3.12,0-4.96-1.21-4.96-2.59,0-.75.81-2.43,3.47-2.43,1.06,0,2.05.23,2.83.34.06,0,.11.01.14.01s.05-.01.05-.03c0-.03-.03-.61-1.58-3.17-1.28.23-1.5.25-1.7.25-1.77,0-3.26-1.51-3.26-2.14,0-.38.35-.64.73-.64.24,0,.5.09.72.34.78.89,1.51,1.06,1.97,1.06.11,0,.21,0,.29-.02l.5-.09ZM174.58,3.34c-.15-.26-.8-.92-1.07-1.1-.2-.14-.29-.29-.29-.44,0-.28.29-.54.63-.54.4,0,1.81,1.04,1.81,1.65,0,.38-.34.69-.66.69-.15,0-.31-.08-.41-.26ZM176.35,2.42c-.17-.26-.81-.89-1.1-1.06-.21-.12-.31-.29-.31-.44,0-.28.29-.55.63-.55.49,0,1.84.99,1.84,1.62,0,.37-.32.67-.64.67-.15,0-.31-.08-.41-.24ZM187.68,12.85c-3.06,0-3.18-1.77-3.18-3.29,0-1.74.18-3.96.18-5.77,0-.66-.03-1.25-.09-1.74,0-.05-.02-.11-.02-.15,0-.5.4-.76.8-.76s.81.26.86.73c.03.34.05.7.05,1.1,0,1.88-.32,4.28-.32,6.33,0,1.25.06,2.02,1.58,2.02,1.68,0,3.37-.67,3.66-.8.18-.08.34-.11.47-.11.47,0,.75.35.75.73s-.23.76-.75.96c-.34.12-1.99.73-3.98.73ZM203.73,4.19c-1.42,3.92-2.54,5.91-3.55,8.03-.14.29-.43.43-.73.43-.4,0-.8-.25-.8-.66,0-.12.03-.28.12-.43.81-1.45,2.08-3.64,3.32-6.91l-.17.05c-.47.14-.92.2-1.3.2-.15,0-1.35,0-1.35-.83,0-.38.24-.78.67-.78.14,0,.29.03.46.12.12.06.24.09.4.09.5,0,1.42-.29,1.79-.43.08-.38.11-.72.11-1.22,0-.47.43-.72.84-.72.35,0,.67.17.72.55.02.08.02.17.02.26s0,.18-.02.29c.06-.02.12-.03.2-.03.41,0,.72.35.72.7,0,.4-.28.67-1.41,1.18l-.05.11ZM208.39,12.8c-2.51,0-4.16-1.33-4.16-2.11,0-.43.35-.81.75-.81.2,0,.41.09.6.34.58.78,1.07.89,3.07,1.03.54.03.78.4.78.76,0,.8-.8.8-1.04.8ZM209.28,7.05c-.72-.28-1.84-.7-2.71-.7-.18,0-.37.02-.52.06-.06.02-.12.03-.17.03-.35,0-.58-.31-.58-.63,0-.24.08-.81,1.44-.81.86,0,1.97.23,3.11.69.35.14.49.41.49.67,0,.38-.31.75-.73.75-.11,0-.21-.01-.32-.06ZM226.92,11.6c.46,0,.67.35.67.69s-.21.7-.66.7c-1.81.05-3.61.06-5.4.06-1.45,0-2.89-.02-4.27-.05-1.33-.03-1.97-.72-2.02-1.85-.05-1.15-.06-2.45-.06-3.79,0-1.64.03-3.3.06-4.8.02-.98.75-1.65,1.9-1.67,1.33-.03,2.95-.03,4.59-.03s3.32,0,4.74.03c.46,0,.67.34.67.67s-.21.66-.67.66c-1.97-.01-4.36-.03-6.33-.03-.89,0-1.7,0-2.36.02-.87.01-1.1.26-1.12,1.04-.03,1.24-.05,2.51-.05,3.75s.01,2.46.05,3.61c.03.87.34,1.01,1.27,1.04.92.02,1.94.03,3.03.03,1.87,0,3.92-.03,5.94-.08h.01ZM225.84,7.37l-3.09-.05c.72,1.16,1.94,1.97,3.14,2.39.38.14.55.43.55.72,0,.37-.28.72-.73.72-.86,0-2.92-1.41-3.84-3.06-1.35,2.78-4.04,3.14-4.08,3.14-.41,0-.66-.35-.66-.69,0-.28.15-.55.55-.66,1.81-.46,2.69-1.48,3.11-2.57l-2.89.06h-.02c-.41,0-.61-.29-.61-.6s.21-.63.63-.63h3.17l.05-.46c.02-.31.02-.67.02-1.04h-1.51c-.75,1.12-1.04,1.19-1.3,1.19-.37,0-.72-.26-.72-.58,0-.12.05-.24.17-.37.69-.72,1.04-1.3,1.42-2.25.11-.24.31-.34.54-.34.37,0,.75.26.75.61,0,.03,0,.09-.18.52h4.6c.4,0,.6.31.6.6,0,.31-.2.61-.6.61h-2.34c0,.18-.02,1.13-.08,1.5h3.38c.41,0,.61.31.61.61s-.2.61-.6.61h-.01ZM239.94,10.8c0,.32.03.8.03,1.16-.02.86-.43,1.62-1.84,1.62-.6,0-1.42-.02-1.42-.75,0-.32.18-.63.52-.63.05,0,.08.02.11.02.29.05.55.09.75.09.37,0,.58-.14.58-.58v-1.25c-1.84,0-2.62-.09-2.66-1.36v-1.21c-.31.2-.93.6-1.19.6-.21,0-.38-.11-.49-.24-.21,1.76-.7,3.4-1.68,4.67-.2.26-.44.37-.67.37-.38,0-.72-.29-.72-.64,0-.12.05-.26.14-.38.95-1.24,1.41-2.6,1.62-4.04-.63.41-1.13.6-1.28.6-.41,0-.67-.4-.67-.76,0-.26.12-.5.43-.6.64-.18,1.15-.4,1.65-.69.01-.32.01-.63.01-.95v-.4c-.12.21-.35.34-.57.34-.18,0-.37-.09-.47-.32-.21-.43-.49-.81-.72-1.01-.15-.14-.21-.28-.21-.41,0-.31.34-.55.66-.55.52,0,1.16.95,1.3,1.19-.02-.47-.05-.95-.08-1.42v-.2c0-1.13.61-1.64,1.93-1.65.78-.02,1.77-.02,2.83-.03v-.55c0-.5.38-.75.78-.75s.78.24.78.75v.54c1.58,0,3.14,0,4.25.03.49.02.7.32.7.61,0,.32-.24.64-.7.64h-.02c-1.07-.02-2.52-.03-3.96-.03.05.08.06.14.06.23,0,.05,0,.09-.02.14l-.18.55,3.87-.03c.41,0,.63.29.63.58,0,.31-.21.6-.61.6h-.02l-2.48-.05c.31.44.64.84,1.04,1.18.35-.25.7-.58.92-.84.11-.12.24-.18.37-.18.34,0,.66.31.66.63,0,.4-.9.93-1.07,1.03.44.29.9.54,1.39.73.26.11.37.32.37.52,0,.34-.28.69-.67.69-.29,0-.64-.18-1.48-.78v.46c0,2.13-.12,2.43-2.48,2.43v.32ZM234.71,13.34c-.4,0-.64-.37-.64-.7,0-.24.12-.49.41-.6.92-.32,1.53-.64,2.26-1.3.11-.09.21-.14.32-.14.31,0,.6.34.6.69,0,.15-.05.31-.18.43-1.01.96-2.45,1.62-2.77,1.62ZM235.44,4.67h-.02c-.4,0-.61-.31-.61-.6s.2-.58.63-.58l2.77.02c.08-.24.15-.47.2-.72.02-.08.03-.14.06-.18-1.3,0-2.51.01-3.34.03-.5.02-.73.23-.73.63v.05c.03.77.06,1.55.06,2.34,0,.63-.02,1.24-.06,1.85.05-.05.11-.09.18-.12.55-.24,1.04-.54,1.45-.84-.28-.24-.5-.38-.81-.54-.21-.11-.29-.26-.29-.41,0-.29.31-.6.66-.6s.86.4,1.3.78c.34-.37.63-.75.84-1.15l-2.29.05ZM241.15,7.5c-.02-.5-.29-.5-1.85-.5-1.73,0-2.02,0-2.05.55v.26h3.9v-.31ZM241.15,8.67h-3.9v.35c.05.47.24.47,1.93.47s1.94,0,1.97-.5v-.32ZM239.02,4.6c-.28.5-.58.98-.95,1.42.35,0,.7-.02,1.07-.02.5,0,1.02.02,1.56.03-.4-.46-.75-.95-.98-1.44h-.7ZM242.86,13.08c-.54-.55-1.27-.98-1.93-1.22-.28-.09-.38-.31-.38-.5,0-.32.26-.64.63-.64.28,0,2.77.8,2.77,1.81,0,.4-.31.77-.66.77-.14,0-.29-.06-.43-.2Z"/>
</svg>